<svg xmlns="http://www.w3.org/2000/svg" xmlns:xlink="http://www.w3.org/1999/xlink" width="103.726" height="103.726" viewBox="0 0 103.726 103.726">
  <defs>
    <filter id="Path_39950" x="0" y="0" width="103.726" height="103.726" filterUnits="userSpaceOnUse">
      <feOffset dy="3" input="SourceAlpha"/>
      <feGaussianBlur stdDeviation="3" result="blur"/>
      <feFlood flood-opacity="0.161"/>
      <feComposite operator="in" in2="blur"/>
      <feComposite in="SourceGraphic"/>
    </filter>
    <clipPath id="clip-path">
      <rect id="Rectangle_576" data-name="Rectangle 576" width="9.854" height="17.703"/>
    </clipPath>
  </defs>
  <g id="Component_36_1" data-name="Component 36 – 1" transform="translate(9 6)">
    <g id="Group_18870" data-name="Group 18870" transform="translate(-3494.246 -9169.246)">
      <g transform="matrix(1, 0, 0, 1, 3485.25, 9163.25)" filter="url(#Path_39950)">
        <path id="Path_39950-2" data-name="Path 39950" d="M42.863,0A42.863,42.863,0,1,1,0,42.863,42.863,42.863,0,0,1,42.863,0Z" transform="translate(9 6)" fill="#fff" opacity="0.897"/>
      </g>
    </g>
    <g id="Dragdownarrow" transform="translate(28.863 51.566) rotate(-90)" opacity="0.9">
      <g id="Group_16757" data-name="Group 16757" transform="translate(17.703 18.187) rotate(90)">
        <g id="Group_3972" data-name="Group 3972" transform="translate(0 0)" clip-path="url(#clip-path)">
          <path id="Path_38429" data-name="Path 38429" d="M1.709,17.41A1,1,0,0,1,.293,15.994L7.435,8.85.293,1.709A1,1,0,0,1,1.709.294L9.558,8.143a1,1,0,0,1,0,1.416Z" transform="translate(0.002 -0.001)"/>
        </g>
      </g>
      <rect id="Rectangle_6627" data-name="Rectangle 6627" width="2" height="17" rx="1" transform="translate(7.999)"/>
    </g>
  </g>
</svg>
