<svg id="Component_74_2" data-name="Component 74 – 2" xmlns="http://www.w3.org/2000/svg" width="137.304" height="75.419" viewBox="0 0 137.304 75.419">
  <path id="Path_56" data-name="Path 56" d="M609.219,404.755c.487.175.928.338.558.975-2.2,3.777-4.385,7.579-7.6,10.611-3.012,2.841-9.044,3.67-12.552,1.762-2.634-1.433-3.626-3.911-3.944-6.745-.353-3.147.813-5.905,2.157-8.631,2.389-4.846,4.8-9.683,7.1-14.573a11.194,11.194,0,0,0,.873-3.674c.124-1.352-.907-1.97-2.127-1.3a11.245,11.245,0,0,0-2.561,1.9,32.9,32.9,0,0,0-6.216,9.336c-1.776,3.731-3.589,7.445-5.383,11.168-1.844,3.827-3.714,7.642-5.507,11.493a1.852,1.852,0,0,1-2,1.285c-4.2-.076-8.408-.03-12.614-.028h-1.117c.541-1.24,1.021-2.363,1.519-3.479q3.04-6.806,6.088-13.608c1.609-3.586,3.244-7.162,4.829-10.759.825-1.875,1.61-3.771,2.313-5.694a1.682,1.682,0,0,0-.206-1.492,1.817,1.817,0,0,0-1.514-.067,10.506,10.506,0,0,0-4.78,3.879c-1.825,2.456-3.482,5.036-5.211,7.562-.146.213-.3.424-.474.682l-1.025-.454c1.454-2.218,2.8-4.41,4.283-6.5a21.783,21.783,0,0,1,5.125-5.6,11.037,11.037,0,0,1,10-1.636,6.65,6.65,0,0,1,4.441,4.848,14.987,14.987,0,0,1-.124,7.732,1.654,1.654,0,0,0-.024.857c.719-1.307,1.407-2.632,2.163-3.916a32.825,32.825,0,0,1,5.23-7.209c3.185-3.073,9.937-3.9,13.633-1.107a8.5,8.5,0,0,1,3.3,6.77,14.112,14.112,0,0,1-1.532,6.883c-2.321,4.94-4.76,9.824-7.125,14.744-.637,1.325-1.179,2.7-1.763,4.047a1.36,1.36,0,0,0,.248,1.683,1.4,1.4,0,0,0,1.782.049,27.862,27.862,0,0,0,3.34-2.593,29.381,29.381,0,0,0,5.9-8.4c.09-.18.2-.351.308-.523C609.068,404.941,609.143,404.855,609.219,404.755Z" transform="translate(-556.675 -360.773)" fill="#dfa313"/>
  <path id="Path_57" data-name="Path 57" d="M705.025,403.8l.9.486c-1.05,1.671-2.035,3.327-3.107,4.924a37.968,37.968,0,0,1-5.673,7.2c-3.027,2.753-8.49,3.535-11.87,1.688-2.5-1.368-3.473-3.68-3.759-6.37a16.219,16.219,0,0,1,.6-5.847,1.748,1.748,0,0,0,.059-.9c-.526.859-1.016,1.742-1.582,2.573-1.755,2.579-3.455,5.2-5.334,7.69a11.222,11.222,0,0,1-14.083,2.3,7.654,7.654,0,0,1-3.45-5.853,13.476,13.476,0,0,1,.877-6.482,142.293,142.293,0,0,1,7.137-15.031c.867-1.66,1.605-3.388,2.381-5.094a1.43,1.43,0,0,0-.282-1.83c-.578-.48-1.211-.238-1.786.079a15.537,15.537,0,0,0-5.186,4.919c-1.4,2.017-2.669,4.121-3.984,6.2-.2.314-.39.658-.771.327a.793.793,0,0,1-.163-.74,60.8,60.8,0,0,1,6.937-9.95c3.048-3.353,9.2-4.478,13.054-2.345a7.7,7.7,0,0,1,3.747,5.859,13.779,13.779,0,0,1-1.365,8.265c-1.322,2.826-2.661,5.644-4.042,8.441-1.137,2.305-2.4,4.548-3.495,6.874a13.94,13.94,0,0,0-1.155,3.613c-.295,1.794.894,2.621,2.493,1.729a9.953,9.953,0,0,0,2.644-2.193,49.377,49.377,0,0,0,7.183-11.617c1.736-3.78,3.607-7.5,5.419-11.245,1.51-3.121,3.027-6.24,4.519-9.369a.961.961,0,0,1,1-.622c4.552.011,9.106,0,13.658.005a6.129,6.129,0,0,1,.7.09c-.718,1.613-1.405,3.161-2.095,4.707q-3.089,6.929-6.179,13.856c-1.569,3.508-3.183,7-4.713,10.522a32.145,32.145,0,0,0-1.565,4.4c-.315,1.164.2,1.628,1.4,1.486a5.756,5.756,0,0,0,3.65-2.151,62.531,62.531,0,0,0,6.984-10.12C704.811,404.122,704.907,403.981,705.025,403.8Z" transform="translate(-571.412 -360.777)" fill="#dfa313"/>
  <path id="Path_58" data-name="Path 58" d="M647.169,405.769l.906.478c-2.468,3.721-4.6,7.627-7.95,10.605-1.8,1.6-4.075,2-6.372,2.184a10.2,10.2,0,0,1-5.434-.8,7.59,7.59,0,0,1-4.232-6.246,14.339,14.339,0,0,1,1.674-8.456q4.223-8.551,8.4-17.122a6,6,0,0,0,.627-1.882,1.743,1.743,0,0,0-.419-1.361,1.386,1.386,0,0,0-1.334.028,23.144,23.144,0,0,0-3.789,3.383c-1.675,2.089-3.084,4.391-4.605,6.6-.1.14-.2.277-.3.418-.759-.15-.906-.428-.489-1.123a43.85,43.85,0,0,1,5.392-7.739c2.753-2.929,6.088-4.511,10.175-3.878,4.193.65,6.764,3.709,7.006,7.941a16.819,16.819,0,0,1-1.639,7.47,137.807,137.807,0,0,1-7.164,14.038c-.712,1.284-1.258,2.661-1.857,4.006a3.16,3.16,0,0,0-.254,1,1.312,1.312,0,0,0,1.495,1.563,5.218,5.218,0,0,0,3.161-1.661,30.492,30.492,0,0,0,5.047-6.373C645.881,407.866,646.489,406.849,647.169,405.769Z" transform="translate(-566.539 -360.788)" fill="#dfa313"/>
  <path id="Path_59" data-name="Path 59" d="M642.14,364.411c-.225-4.3,3.736-7.282,7.38-7.165,4.347.139,7.379,3.085,7.349,7.4a7.313,7.313,0,0,1-7.477,7.01A7.081,7.081,0,0,1,642.14,364.411Z" transform="translate(-569.332 -357.243)" fill="#dfa313"/>
  <path id="Path_60" data-name="Path 60" d="M566.384,438.107c1.944,1.024,1.992,2.148,1.781,3.465a2.5,2.5,0,0,1-2.184,2.14,5.441,5.441,0,0,1-.863.082c-2.634.007-5.268,0-7.9.013-.507,0-.82-.074-.818-.692.013-3.155,0-6.311-.01-9.466,0-.522.212-.693.733-.688,2.576.024,5.153-.017,7.729.028a2.689,2.689,0,0,1,2.581,3.837A6.528,6.528,0,0,1,566.384,438.107Zm-8.989.5c0,1.364-.025,2.631.029,3.9.008.172.405.468.626.47,2.317.034,4.636.051,6.953.008a2.078,2.078,0,0,0,2.27-2.114,2.283,2.283,0,0,0-2.307-2.235c-.983-.044-1.97-.023-2.955-.026C560.511,438.6,559.01,438.6,557.395,438.6Zm-.014-4.751c0,1.091.03,2.068-.011,3.043-.026.637.186.875.84.858,1.449-.037,2.9,0,4.348-.013a18.923,18.923,0,0,0,2.513-.121,1.879,1.879,0,0,0-.193-3.731c-.462-.039-.927-.034-1.391-.035C561.494,433.852,559.5,433.853,557.38,433.853Z" transform="translate(-556.388 -368.673)" fill="#dfa313"/>
  <path id="Path_61" data-name="Path 61" d="M605.472,443.686a1.52,1.52,0,0,1-1.809-.529c-.982-1.212-2.073-2.336-3.094-3.518a1.71,1.71,0,0,0-1.486-.692,32.472,32.472,0,0,1-3.3,0c-.722-.04-.9.258-.877.9.03,1.071.037,2.145-.019,3.214-.013.246-.32.476-.492.714-.132-.242-.376-.482-.379-.724-.025-3.1,0-6.2-.025-9.3-.005-.609.2-.8.8-.791,2.346.031,4.692-.014,7.038.025,2.5.04,3.763,1.7,3.1,4.016a2.241,2.241,0,0,1-1.559,1.6c-.622.194-1.269.307-2.014.481Zm-6.6-9.8v-.042c-1.1,0-2.2-.032-3.3.025a.868.868,0,0,0-.63.549,29.3,29.3,0,0,0,0,3.125c.009.2.3.557.455.556,2.344,0,4.69.009,7.028-.12a1.958,1.958,0,0,0,1.656-2.117,1.888,1.888,0,0,0-1.908-1.965C601.079,433.842,599.976,433.888,598.877,433.888Z" transform="translate(-562.065 -368.674)" fill="#dfa313"/>
  <path id="Path_62" data-name="Path 62" d="M631.979,433.056c.364-.026.645-.064.927-.065,2.842-.005,5.685-.015,8.525.014.29,0,.576.263.864.4a2.609,2.609,0,0,1-.894.388c-2.494.031-4.987.036-7.481,0-.713-.01-1.006.216-.961.943a16.43,16.43,0,0,1,0,2.086c-.048.738.273.942.97.931,2.174-.033,4.35-.013,6.525-.012a2.156,2.156,0,0,1,.689.031c.176.061.3.262.449.4-.174.136-.336.363-.526.389a9.495,9.495,0,0,1-1.3.02c-1.972,0-3.944.021-5.915-.013-.628-.011-.9.172-.882.824.031.927.028,1.857,0,2.784-.019.633.228.866.87.86,2.581-.026,5.162-.013,7.743-.014a2.559,2.559,0,0,1,.691.025c.15.043.262.226.39.346-.13.126-.255.257-.392.374-.036.03-.113.013-.171.013-3.161,0-6.322.01-9.482-.021-.213,0-.6-.315-.607-.487C631.969,439.9,631.979,436.51,631.979,433.056Z" transform="translate(-567.799 -368.677)" fill="#dfa313"/>
  <path id="Path_63" data-name="Path 63" d="M671.277,432.619c2.346.081,4.372.791,5.562,2.942a5.434,5.434,0,0,1-2.438,7.777,7.389,7.389,0,0,1-7.886-1.009,5.585,5.585,0,0,1,2.793-9.423C669.952,432.754,670.62,432.711,671.277,432.619Zm-.09,10.553c.2,0,.406.013.608,0a4.623,4.623,0,0,0,4.186-2.629,4.831,4.831,0,0,0-.289-4.966c-1.252-1.831-3.174-2.187-5.228-2.054a4.868,4.868,0,0,0-4.02,7.068C667.436,442.518,669.17,443.116,671.187,443.172Z" transform="translate(-572.761 -368.621)" fill="#dfa313"/>
  <path id="Path_64" data-name="Path 64" d="M678.875,370.03c-.021-.363-.054-.672-.054-.982,0-2.9.021-5.8-.018-8.7-.01-.766.225-.986.989-.974,2.841.043,5.683.008,8.525.032.241,0,.482.233.722.357-.235.131-.469.372-.7.374-2.581.028-5.162.042-7.742,0-.705-.011-.921.232-.881.9a16.591,16.591,0,0,1,0,2.087c-.048.738.268.937.969.925,2.146-.036,4.291-.013,6.438-.013a1.81,1.81,0,0,1,.6.015,3.031,3.031,0,0,1,.606.406c-.2.136-.4.388-.609.391-2.117.029-4.234,0-6.35.021-1.808.016-1.65-.323-1.639,1.678,0,.855-.2,1.986.25,2.481.4.436,1.574.185,2.408.191,2.088.015,4.175.011,6.263,0,.542,0,.952.062.683.809Z" transform="translate(-574.867 -357.565)" fill="#dfa313"/>
  <path id="Path_65" data-name="Path 65" d="M686.078,432.837a4.2,4.2,0,0,1,1.007.566c2.743,2.768,5.462,5.561,8.191,8.344.189.193.41.356.8.69V440.6c0-2.289-.014-4.577.019-6.865,0-.26.274-.515.421-.773.151.254.432.506.434.762.031,3.07.029,6.14.009,9.21a2.8,2.8,0,0,1-.279.825c-.333-.119-.758-.146-.986-.373-2.072-2.061-4.105-4.162-6.16-6.241-.869-.879-1.761-1.735-2.775-2.731-.027.466-.062.794-.062,1.122,0,2.376,0,4.75,0,7.126a2.03,2.03,0,0,1-.029.688c-.064.169-.28.28-.429.417-.134-.148-.386-.295-.387-.443-.022-3.412-.017-6.824-.017-10.236Z" transform="translate(-575.929 -368.654)" fill="#dfa313"/>
  <path id="Path_66" data-name="Path 66" d="M625.388,363.89h9.124v-3.144a1.916,1.916,0,0,1,.018-.689,2.97,2.97,0,0,1,.492-.64c.138.2.385.4.394.608.042,1.013.02,2.028.021,3.043,0,2.086.015,4.174-.021,6.26,0,.247-.286.49-.44.735-.155-.25-.436-.495-.443-.748-.042-1.471-.02-2.943-.02-4.557h-1.737c-2.116,0-4.232.029-6.347-.006-.769-.013-1.1.209-1.054,1.029.06,1.185.042,2.377-.008,3.563-.011.245-.311.478-.477.717-.161-.24-.462-.478-.465-.719q-.047-4.608,0-9.216c0-.239.3-.475.467-.713.165.245.462.484.472.735C625.415,361.382,625.388,362.619,625.388,363.89Z" transform="translate(-566.656 -357.571)" fill="#dfa313"/>
  <path id="Path_67" data-name="Path 67" d="M624.262,440.938c-2.059,3.986-8.692,4.055-10.768.4a5.67,5.67,0,0,1,4.448-8.6,6.074,6.074,0,0,1,5.476,1.982,8.527,8.527,0,0,1,.545.8l-.633.485c-.2-.213-.375-.389-.534-.583a5.259,5.259,0,0,0-7.1-.963,4.915,4.915,0,0,0-1.826,5.156,4.851,4.851,0,0,0,4.252,3.556,5.247,5.247,0,0,0,5.043-2.242C623.58,440.349,623.86,440.677,624.262,440.938Z" transform="translate(-564.887 -368.634)" fill="#dfa313"/>
  <path id="Path_68" data-name="Path 68" d="M716.038,443.691c-.637.248-1.094.1-1.256-.527-.454-1.766-1.516-2.411-3.344-2.169a25.794,25.794,0,0,1-3.994.022.97.97,0,0,0-1.117.709c-.177.514-.477.986-.7,1.488s-.535.737-1.217.432c.3-.64.579-1.283.888-1.913q1.909-3.892,3.833-7.777a4.726,4.726,0,0,1,.381-.681.794.794,0,0,1,1.341.062c1.708,3.339,3.4,6.689,5.087,10.037A1.858,1.858,0,0,1,716.038,443.691Zm-8.9-3.573h6.144l-3.119-6.2C709.085,436.13,708.131,438.083,707.138,440.118Z" transform="translate(-578.734 -368.669)" fill="#dfa313"/>
  <path id="Path_69" data-name="Path 69" d="M586.411,443.639c-.613.3-.955.155-1.2-.36a16.137,16.137,0,0,1-.774-1.545.952.952,0,0,0-1.1-.708c-1.825.032-3.652.036-5.476,0a1.082,1.082,0,0,0-1.2.742c-.188.483-.5.921-.661,1.41-.219.669-.617.737-1.254.512.675-1.412,1.313-2.79,1.988-4.15q1.5-3.025,3.053-6.023c.119-.228.447-.511.651-.492a1.212,1.212,0,0,1,.86.487c1.439,2.769,2.832,5.56,4.235,8.347C585.825,442.442,586.11,443.03,586.411,443.639Zm-2.728-3.443c-1.065-2.123-2.056-4.1-3.154-6.288l-3.06,6.288Z" transform="translate(-559.159 -368.683)" fill="#dfa313"/>
  <path id="Path_70" data-name="Path 70" d="M650.653,438.311c0-1.505,0-3.011,0-4.516,0-.368-.075-.785.515-.806.66-.022.552.439.552.832,0,2.779.026,5.559-.012,8.337-.009.708.241.893.9.883,2.056-.031,4.111-.024,6.166,0a2.345,2.345,0,0,1,.768.311c-.255.147-.508.42-.764.422-2.431.022-4.863-.016-7.294,0-.632,0-.864-.2-.846-.858C650.681,441.38,650.653,439.845,650.653,438.311Z" transform="translate(-570.616 -368.677)" fill="#dfa313"/>
  <path id="Path_71" data-name="Path 71" d="M667.127,369.964c-.789.266-.955-.037-.949-.683.024-2.637.011-5.274.012-7.912v-1.215c-1.405,0-2.7.018-3.995-.015a2.324,2.324,0,0,1-.763-.323c.26-.138.518-.395.778-.4q4.39-.043,8.782,0c.26,0,.518.262.777.4a2.413,2.413,0,0,1-.763.319c-.984.039-1.973.057-2.955,0-.711-.038-.954.181-.943.918.041,2.637.018,5.275.019,7.913Z" transform="translate(-572.246 -357.568)" fill="#dfa313"/>
  <path id="Path_72" data-name="Path 72" d="M697.341,370.081V359.444l.938-.052v9.786h7.7l.2.256c-.168.216-.334.616-.5.619C702.927,370.093,700.181,370.081,697.341,370.081Z" transform="translate(-577.666 -357.567)" fill="#dfa313"/>
</svg>
